<?xml version="1.0" encoding="UTF-8" standalone="no"?>
<!-- Created with Inkscape (http://www.inkscape.org/) -->

<svg
   width="91.810165"
   height="32.534824"
   viewBox="0 0 91.810166 32.534825"
   version="1.1"
   id="svg1"
   xml:space="preserve"
   xmlns:xlink="http://www.w3.org/1999/xlink"
   xmlns="http://www.w3.org/2000/svg"
   xmlns:svg="http://www.w3.org/2000/svg"><defs
     id="defs1"><linearGradient
       id="linearGradient44"><stop
         style="stop-color:#bd0f3b;stop-opacity:1;"
         offset="0"
         id="stop44" /><stop
         style="stop-color:#5e071d;stop-opacity:1;"
         offset="0.26305076"
         id="stop46" /><stop
         style="stop-color:#4a0517;stop-opacity:1;"
         offset="0.66317505"
         id="stop2" /><stop
         style="stop-color:#57061b;stop-opacity:1;"
         offset="0.85587066"
         id="stop3" /><stop
         style="stop-color:#650720;stop-opacity:1;"
         offset="0.89456815"
         id="stop1" /><stop
         style="stop-color:#9c0b32;stop-opacity:1;"
         offset="1"
         id="stop45" /></linearGradient><rect
       x="36.013718"
       y="41.158531"
       width="51.895542"
       height="17.447639"
       id="rect16" /><rect
       x="36.013718"
       y="41.158531"
       width="51.895542"
       height="17.447639"
       id="rect22" /><linearGradient
       xlink:href="#linearGradient44"
       id="linearGradient45"
       x1="29.759756"
       y1="1054.4556"
       x2="54.349854"
       y2="1079.296"
       gradientUnits="userSpaceOnUse" /><linearGradient
       xlink:href="#linearGradient44"
       id="linearGradient5"
       gradientUnits="userSpaceOnUse"
       x1="29.759756"
       y1="1054.4556"
       x2="54.349854"
       y2="1079.296" /><linearGradient
       xlink:href="#linearGradient14"
       id="linearGradient15"
       gradientUnits="userSpaceOnUse"
       x1="29.759756"
       y1="1054.4556"
       x2="54.349854"
       y2="1079.296" /><linearGradient
       id="linearGradient14"><stop
         style="stop-color:#0f56bd;stop-opacity:1;"
         offset="0"
         id="stop9" /><stop
         style="stop-color:#07115e;stop-opacity:1;"
         offset="0.26305076"
         id="stop10" /><stop
         style="stop-color:#0c054a;stop-opacity:1;"
         offset="0.66317505"
         id="stop11" /><stop
         style="stop-color:#0f0657;stop-opacity:1;"
         offset="0.85587066"
         id="stop12" /><stop
         style="stop-color:#1a086e;stop-opacity:1;"
         offset="0.89456815"
         id="stop13" /><stop
         style="stop-color:#370b9c;stop-opacity:1;"
         offset="1"
         id="stop14" /></linearGradient><linearGradient
       xlink:href="#linearGradient44"
       id="linearGradient1"
       gradientUnits="userSpaceOnUse"
       x1="29.759756"
       y1="1054.4556"
       x2="54.349854"
       y2="1079.296" /><linearGradient
       xlink:href="#linearGradient44"
       id="linearGradient2"
       gradientUnits="userSpaceOnUse"
       x1="29.759756"
       y1="1054.4556"
       x2="54.349854"
       y2="1079.296" /><filter
       style="color-interpolation-filters:sRGB"
       id="filter13"
       x="-0.10300128"
       y="-0.058388154"
       width="1.2060026"
       height="1.1167763"><feGaussianBlur
         stdDeviation="0.89124105"
         id="feGaussianBlur13" /></filter></defs><g
     id="layer13"
     style="display:inline"
     transform="translate(-17.133015,-570.52705)"><g
       id="g579"
       transform="translate(17.249999,-381.99999)"
       style="display:inline"><g
         id="g4"
         transform="matrix(3.1925537,0,0,3.1925537,-107.16466,-2232.0206)"><path
           style="font-weight:bold;font-size:10.6667px;line-height:17.0079px;font-family:'Space Grotesk';-inkscape-font-specification:'Space Grotesk Bold';text-align:center;white-space:pre;fill:#ffffff;stroke-width:2;stroke-linecap:round;stroke-linejoin:round;stroke-miterlimit:4.6"
           d="M 47.593872,52.173832 V 51.6979 a 0.38070256,0.38070256 135 0 1 0.380703,-0.380703 l 0.219931,0 a 0.38070256,0.38070256 135 0 0 0.380703,-0.380703 v -4.230609 a 0.38070256,0.38070256 45 0 0 -0.380703,-0.380703 h -0.219931 a 0.38070256,0.38070256 45 0 1 -0.380703,-0.380703 v -0.475932 a 0.38070256,0.38070256 135 0 1 0.380703,-0.380703 h 2.310604 c 0.210257,0 0.551418,-0.0018 0.7611,0.01309 0.653813,0.04652 1.190539,0.217018 1.610181,0.511486 0.171896,0.120622 0.418355,0.360157 0.542725,0.529361 0.302327,0.411314 0.477403,0.943001 0.525227,1.595062 0.01537,0.209625 0.01348,0.550786 0.01348,0.761043 v 0.646599 c 0,0.210257 0.0019,0.551435 -0.01347,0.761083 -0.04789,0.653863 -0.223474,1.188659 -0.526756,1.604386 -0.123758,0.169642 -0.3702,0.409191 -0.543009,0.528529 -0.419381,0.289617 -0.955514,0.457329 -1.6084,0.503138 -0.209681,0.01471 -0.550821,0.01291 -0.761078,0.01291 h -2.310604 a 0.38070256,0.38070256 45 0 1 -0.380703,-0.380703 z m 2.770044,-0.899302 c 0.178557,0 0.494878,0.0045 0.702844,-0.02528 0.221781,-0.03171 0.413024,-0.09324 0.573732,-0.184604 0.181917,-0.103419 0.412549,-0.366196 0.503563,-0.555004 0.07913,-0.164158 0.132991,-0.351538 0.161578,-0.562142 0.02826,-0.208188 0.02425,-0.550086 0.02425,-0.760343 v -0.731932 c 0,-0.210257 0.004,-0.552121 -0.02373,-0.760389 -0.02826,-0.212323 -0.08174,-0.400093 -0.16047,-0.56331 -0.09103,-0.188733 -0.323296,-0.450389 -0.505241,-0.553814 -0.16071,-0.09136 -0.351956,-0.152884 -0.573737,-0.184587 -0.207941,-0.02973 -0.549942,-0.02528 -0.760199,-0.02528 a 0.35316966,0.35316966 130.3386 0 0 -0.3233,0.380703 l 0,4.145276 a 0.38070256,0.38070256 45 0 0 0.380703,0.380703 z m 4.205972,0.899302 v -1.0306 a 1.0181823,1.0181823 110.50098 0 1 0.249773,-0.668014 l 3.191132,-3.670725 a 0.74475556,0.74475556 118.60726 0 0 0.249773,-0.457978 h -3.203308 a 0.38070256,0.38070256 45 0 1 -0.380703,-0.380703 l 0,-0.497265 a 0.38070256,0.38070256 135 0 1 0.380703,-0.380703 h 4.294609 a 0.38070256,0.38070256 45 0 1 0.380703,0.380703 l 0,1.0306 a 1.0181823,1.0181823 110.50098 0 1 -0.249773,0.668014 l -3.191132,3.670725 a 0.74475556,0.74475556 118.60726 0 0 -0.249773,0.457978 l 3.331309,0 a 0.38070256,0.38070256 45 0 1 0.380703,0.380703 v 0.497265 a 0.38070256,0.38070256 135 0 1 -0.380703,0.380703 l -4.42261,0 a 0.38070256,0.38070256 45 0 1 -0.380703,-0.380703 z m 9.066694,0 0,-6.705285 a 0.38070256,0.38070256 135 0 1 0.380703,-0.380703 l 1.915935,0 a 0.47721161,0.47721161 38.581628 0 1 0.465285,0.371188 l 1.313508,5.764312 a 0.3711355,0.3711355 53.309193 0 0 0.276582,0.371188 v -6.125985 a 0.38070256,0.38070256 135 0 1 0.380703,-0.380703 h 0.625265 a 0.38070256,0.38070256 45 0 1 0.380703,0.380703 v 6.705285 a 0.38070256,0.38070256 135 0 1 -0.380703,0.380703 l -1.915935,0 a 0.47721161,0.47721161 38.581628 0 1 -0.465285,-0.371188 l -1.313508,-5.764312 a 0.3711355,0.3711355 53.309193 0 0 -0.276582,-0.371188 v 6.125985 a 0.38070256,0.38070256 135 0 1 -0.380703,0.380703 h -0.625265 a 0.38070256,0.38070256 45 0 1 -0.380703,-0.380703 z m 7.146689,0 0,-6.705285 a 0.38070256,0.38070256 135 0 1 0.380703,-0.380703 h 2.481271 c 0.210257,0 0.551738,-0.0027 0.760745,0.01924 0.172964,0.01819 0.336392,0.04928 0.490286,0.09327 0.201942,0.05773 0.514053,0.201953 0.685254,0.323527 0.08831,0.06271 0.169613,0.131467 0.243915,0.206272 0.147899,0.148899 0.334563,0.439659 0.406785,0.636669 0.03917,0.106851 0.06867,0.219072 0.08852,0.336663 0.03494,0.207087 0.03054,0.436343 0.03054,0.507037 -0.05058,0.515611 -0.08511,0.641927 -0.13223,0.758167 -0.07875,0.19426 -0.289351,0.469118 -0.446499,0.608326 -0.06198,0.05491 -0.127014,0.105237 -0.195097,0.15099 -0.174212,0.117075 -0.335511,0.264483 -0.335511,0.370523 0.553737,0.16192 0.782178,0.430244 0.843387,0.629725 7.74e-4,0.0025 0.0015,0.0051 0.0023,0.0076 0.05993,0.20077 0.05032,0.546471 0.05032,0.756728 v 1.681269 a 0.38070256,0.38070256 135 0 1 -0.380703,0.380703 l -0.646599,0 A 0.38070256,0.38070256 45 0 1 74.72995,52.173832 V 50.69523 c 0,-0.210257 0.01684,-0.570282 -0.09775,-0.742911 -0.02064,-0.0311 -0.173646,-0.188929 -0.377241,-0.209064 -0.05558,-0.0055 -0.271453,-0.0047 -0.48171,-0.0047 h -1.201266 a 0.38070256,0.38070256 135 0 0 -0.380703,0.380703 v 2.054603 a 0.38070256,0.38070256 135 0 1 -0.380703,0.380703 h -0.646599 a 0.38070256,0.38070256 45 0 1 -0.380703,-0.380703 z m 1.788708,-3.71531 h 0.923932 c 0.210257,0 0.555155,0.009 0.757541,-0.04574 0.02709,-0.0073 0.05344,-0.01552 0.07905,-0.0246 0.196659,-0.06973 0.456878,-0.315293 0.535662,-0.508559 0.0052,-0.01286 0.01021,-0.02588 0.0149,-0.03906 0.07017,-0.197121 0.06022,-0.421799 0.06022,-0.48071 -0.06191,-0.382986 -0.06507,-0.3916 -0.06836,-0.400136 -0.07487,-0.194656 -0.332615,-0.443889 -0.528194,-0.516471 -0.03004,-0.01115 -0.06113,-0.02106 -0.09327,-0.02974 -0.202406,-0.05465 -0.547301,-0.04566 -0.757558,-0.04566 h -0.923932 a 0.38070256,0.38070256 135 0 0 -0.380703,0.380703 l 0,1.329268 a 0.38070256,0.38070256 45 0 0 0.380703,0.380703 z"
           id="text1"
           transform="translate(-14.063449,955.07466)"
           aria-label="DZ NR" /><g
           id="g30"
           transform="matrix(0.30169574,0,0,0.30169574,34.819213,678.48075)"
           style="display:inline"><path
             d="m 61.513915,44.050584 v -7.46669 h 0.896003 l 0,6.570687 a 0.896003,0.896003 135 0 1 -0.896003,0.896003 z"
             id="path29"
             style="font-size:10.6667px;line-height:0;font-family:'Space Grotesk';-inkscape-font-specification:'Space Grotesk';text-align:center;white-space:pre;fill:#ffffff;stroke-width:2;stroke-linecap:round;stroke-linejoin:round;stroke-miterlimit:4.6"
             transform="matrix(6.614116,0,0,3.3593634,-367.64767,943.19148)"
             aria-label="I" /><path
             style="font-weight:bold;font-size:10.6667px;line-height:17.0079px;font-family:'Space Grotesk';-inkscape-font-specification:'Space Grotesk Bold';text-align:center;text-anchor:middle;white-space:pre;display:inline;fill:#ff002c;fill-opacity:1;stroke-width:2;stroke-linecap:round;stroke-linejoin:round;stroke-miterlimit:4.6"
             d="m 59.551235,47.677818 v -0.358599 a 0.21536809,0.21536809 135 0 1 0.215368,-0.215368 h 0.401267 a 2.4049033,2.4049033 5.1174004 0 1 0.427309,0.03827 l 0.34412,0.06213 a 0.22248891,0.22248891 159.26934 0 0 0.265271,-0.1004 L 60.742385,46.788025 A 2.2024181,2.2024181 39.931147 0 1 60.413658,46.512862 L 60.12881,46.222835 a 0.21731733,0.21731733 90.258064 0 1 0.0014,-0.305942 L 60.38028,45.6668 a 0.21731694,0.21731694 179.74189 0 1 0.305942,-0.0014 l 0.290028,0.284849 a 2.2024061,2.2024061 50.068884 0 1 0.275162,0.328728 l 0.194318,0.284366 a 0.23245136,0.23245136 25.569972 0 0 0.260175,0.124488 l -0.1004,-0.556061 a 2.4049033,2.4049033 84.8826 0 1 -0.03827,-0.427309 v -0.401267 a 0.21536809,0.21536809 135 0 1 0.215368,-0.215368 h 0.3586 a 0.21536809,0.21536809 45 0 1 0.215368,0.215368 v 0.401267 a 2.4049033,2.4049033 95.1174 0 1 -0.03827,0.427309 l -0.06213,0.34412 a 0.22248891,0.22248891 69.26934 0 0 0.1004,0.265271 L 62.6724,46.278998 a 2.2024278,2.2024278 129.93112 0 1 0.275163,-0.328727 l 0.290027,-0.284849 a 0.21731676,0.21731676 0.25809094 0 1 0.305942,0.0014 l 0.250092,0.250093 a 0.21731733,0.21731733 89.741936 0 1 0.0014,0.305942 l -0.284848,0.290027 a 2.2024181,2.2024181 140.06885 0 1 -0.328727,0.275163 l -0.284368,0.194317 a 0.23245161,0.23245161 115.56993 0 0 -0.124487,0.260176 l 0.556062,-0.1004 a 2.4049063,2.4049063 174.88261 0 1 0.427309,-0.03827 h 0.401266 a 0.21536809,0.21536809 45 0 1 0.215368,0.215368 v 0.358599 a 0.21536809,0.21536809 135 0 1 -0.215368,0.215368 h -0.401266 a 2.4049063,2.4049063 5.1173939 0 1 -0.427309,-0.03827 l -0.344121,-0.06213 a 0.22248896,0.22248896 159.26933 0 0 -0.265271,0.1004 l 0.462185,0.315826 a 2.2024181,2.2024181 39.931147 0 1 0.328727,0.275163 l 0.284848,0.290027 a 0.21731733,0.21731733 90.258064 0 1 -0.0014,0.305942 l -0.250092,0.250093 a 0.21731676,0.21731676 179.74191 0 1 -0.305942,0.0014 L 62.947563,49.046766 A 2.2024278,2.2024278 50.068877 0 1 62.6724,48.718039 l -0.194317,-0.284368 a 0.23245161,0.23245161 25.569933 0 0 -0.260176,-0.124487 l 0.1004,0.556061 a 2.4049033,2.4049033 84.8826 0 1 0.03827,0.427309 v 0.401267 a 0.21536809,0.21536809 135 0 1 -0.215368,0.215368 h -0.358597 a 0.21536809,0.21536809 45 0 1 -0.215368,-0.215368 l 0,-0.401263 a 2.4049033,2.4049033 95.1174 0 1 0.03827,-0.427309 l 0.06213,-0.34412 a 0.22248891,0.22248891 69.26934 0 0 -0.1004,-0.265271 l -0.315826,0.462184 a 2.2024061,2.2024061 129.93112 0 1 -0.275162,0.328728 l -0.290028,0.284849 a 0.21731694,0.21731694 0.25811491 0 1 -0.305942,-0.0014 l -0.250092,-0.250093 a 0.21731733,0.21731733 89.741936 0 1 -0.0014,-0.305942 l 0.284848,-0.290027 a 2.2024181,2.2024181 140.06885 0 1 0.328727,-0.275163 l 0.284368,-0.194317 a 0.23245161,0.23245161 115.56993 0 0 0.124487,-0.260176 l -0.556061,0.1004 a 2.4048382,2.4048382 174.88274 0 1 -0.427309,0.03827 l -0.40127,-2e-6 a 0.21536913,0.21536913 45.000138 0 1 -0.215368,-0.215369 z"
             id="path30"
             transform="matrix(4.3071715,0,0,4.3071715,-224.98375,863.19375)"
             aria-label="*" /></g></g><g
         id="g9"
         transform="matrix(0.72360245,0,0,0.72360245,1.8400781,228.34458)"
         style="fill:url(#linearGradient2);fill-opacity:1"><g
           id="g26"
           style="fill:url(#linearGradient1)"><path
             id="rect5"
             d="m 33.257345,1053.8407 h 20.114627 a 4.1079211,4.1079211 45 0 1 4.107921,4.1079 v 20.1147 a 4.1079211,4.1079211 135 0 1 -4.107921,4.1079 H 33.257345 a 4.1079211,4.1079211 45 0 1 -4.107921,-4.1079 l 0,-20.1147 a 4.1079211,4.1079211 135 0 1 4.107921,-4.1079 z"
             style="fill:url(#linearGradient5);fill-opacity:1;stroke-width:1.13322;stroke-linecap:round;stroke-linejoin:round;stroke-miterlimit:4.6" /><g
             id="g18"
             transform="matrix(0.60099376,0,0,0.57312136,18.066115,451.63176)"
             style="fill:#4a0517;fill-opacity:1;filter:url(#filter13)"><path
               d="m 61.513915,44.050584 v -7.46669 h 0.896003 l 0,6.570687 a 0.896003,0.896003 135 0 1 -0.896003,0.896003 z"
               id="text18"
               style="font-size:10.6667px;line-height:0;font-family:'Space Grotesk';-inkscape-font-specification:'Space Grotesk';text-align:center;white-space:pre;fill:#4a0517;fill-opacity:1;stroke-width:2;stroke-linecap:round;stroke-linejoin:round;stroke-miterlimit:4.6"
               transform="matrix(6.614116,0,0,3.1507915,-367.77745,955.23432)"
               aria-label="I" /><path
               style="font-weight:bold;font-size:10.6667px;line-height:17.0079px;font-family:'Space Grotesk';-inkscape-font-specification:'Space Grotesk Bold';text-align:center;text-anchor:middle;white-space:pre;display:inline;fill:#4a0517;fill-opacity:1;stroke-width:2;stroke-linecap:round;stroke-linejoin:round;stroke-miterlimit:4.6"
               d="m 59.551235,47.677818 v -0.358599 a 0.21536809,0.21536809 135 0 1 0.215368,-0.215368 h 0.401267 a 2.4049033,2.4049033 5.1174004 0 1 0.427309,0.03827 l 0.34412,0.06213 a 0.22248891,0.22248891 159.26934 0 0 0.265271,-0.1004 L 60.742385,46.788025 A 2.2024181,2.2024181 39.931147 0 1 60.413658,46.512862 L 60.12881,46.222835 a 0.21731733,0.21731733 90.258064 0 1 0.0014,-0.305942 L 60.38028,45.6668 a 0.21731694,0.21731694 179.74189 0 1 0.305942,-0.0014 l 0.290028,0.284849 a 2.2024061,2.2024061 50.068884 0 1 0.275162,0.328728 l 0.194318,0.284366 a 0.23245136,0.23245136 25.569972 0 0 0.260175,0.124488 l -0.1004,-0.556061 a 2.4049033,2.4049033 84.8826 0 1 -0.03827,-0.427309 v -0.401267 a 0.21536809,0.21536809 135 0 1 0.215368,-0.215368 h 0.3586 a 0.21536809,0.21536809 45 0 1 0.215368,0.215368 v 0.401267 a 2.4049033,2.4049033 95.1174 0 1 -0.03827,0.427309 l -0.06213,0.34412 a 0.22248891,0.22248891 69.26934 0 0 0.1004,0.265271 L 62.6724,46.278998 a 2.2024278,2.2024278 129.93112 0 1 0.275163,-0.328727 l 0.290027,-0.284849 a 0.21731676,0.21731676 0.25809094 0 1 0.305942,0.0014 l 0.250092,0.250093 a 0.21731733,0.21731733 89.741936 0 1 0.0014,0.305942 l -0.284848,0.290027 a 2.2024181,2.2024181 140.06885 0 1 -0.328727,0.275163 l -0.284368,0.194317 a 0.23245161,0.23245161 115.56993 0 0 -0.124487,0.260176 l 0.556062,-0.1004 a 2.4049063,2.4049063 174.88261 0 1 0.427309,-0.03827 h 0.401266 a 0.21536809,0.21536809 45 0 1 0.215368,0.215368 v 0.358599 a 0.21536809,0.21536809 135 0 1 -0.215368,0.215368 h -0.401266 a 2.4049063,2.4049063 5.1173939 0 1 -0.427309,-0.03827 l -0.344121,-0.06213 a 0.22248896,0.22248896 159.26933 0 0 -0.265271,0.1004 l 0.462185,0.315826 a 2.2024181,2.2024181 39.931147 0 1 0.328727,0.275163 l 0.284848,0.290027 a 0.21731733,0.21731733 90.258064 0 1 -0.0014,0.305942 l -0.250092,0.250093 a 0.21731676,0.21731676 179.74191 0 1 -0.305942,0.0014 L 62.947563,49.046766 A 2.2024278,2.2024278 50.068877 0 1 62.6724,48.718039 l -0.194317,-0.284368 a 0.23245161,0.23245161 25.569933 0 0 -0.260176,-0.124487 l 0.1004,0.556061 a 2.4049033,2.4049033 84.8826 0 1 0.03827,0.427309 v 0.401267 a 0.21536809,0.21536809 135 0 1 -0.215368,0.215368 h -0.358597 a 0.21536809,0.21536809 45 0 1 -0.215368,-0.215368 l 0,-0.401263 a 2.4049033,2.4049033 95.1174 0 1 0.03827,-0.427309 l 0.06213,-0.34412 a 0.22248891,0.22248891 69.26934 0 0 -0.1004,-0.265271 l -0.315826,0.462184 a 2.2024061,2.2024061 129.93112 0 1 -0.275162,0.328728 l -0.290028,0.284849 a 0.21731694,0.21731694 0.25811491 0 1 -0.305942,-0.0014 l -0.250092,-0.250093 a 0.21731733,0.21731733 89.741936 0 1 -0.0014,-0.305942 l 0.284848,-0.290027 a 2.2024181,2.2024181 140.06885 0 1 0.328727,-0.275163 l 0.284368,-0.194317 a 0.23245161,0.23245161 115.56993 0 0 0.124487,-0.260176 l -0.556061,0.1004 a 2.4048382,2.4048382 174.88274 0 1 -0.427309,0.03827 l -0.40127,-2e-6 a 0.21536913,0.21536913 45.000138 0 1 -0.215368,-0.215369 z"
               id="path19"
               transform="matrix(4.3071715,0,0,4.3071715,-224.98375,863.19375)"
               aria-label="*" /></g><g
             id="g3"
             transform="matrix(0.60099376,0,0,0.57312136,18.310416,451.75391)"
             style="fill:#ff002d;fill-opacity:1"><path
               d="m 61.513915,44.050584 v -7.46669 h 0.896003 l 0,6.570687 a 0.896003,0.896003 135 0 1 -0.896003,0.896003 z"
               id="path2"
               style="font-size:10.6667px;line-height:0;font-family:'Space Grotesk';-inkscape-font-specification:'Space Grotesk';text-align:center;white-space:pre;fill:#ff002d;fill-opacity:1;stroke-width:2;stroke-linecap:round;stroke-linejoin:round;stroke-miterlimit:4.6"
               transform="matrix(6.614116,0,0,3.1507915,-367.77745,955.23432)"
               aria-label="I" /><path
               style="font-weight:bold;font-size:10.6667px;line-height:17.0079px;font-family:'Space Grotesk';-inkscape-font-specification:'Space Grotesk Bold';text-align:center;text-anchor:middle;white-space:pre;display:inline;fill:#ff002d;fill-opacity:1;stroke-width:2;stroke-linecap:round;stroke-linejoin:round;stroke-miterlimit:4.6"
               d="m 59.551235,47.677818 v -0.358599 a 0.21536809,0.21536809 135 0 1 0.215368,-0.215368 h 0.401267 a 2.4049033,2.4049033 5.1174004 0 1 0.427309,0.03827 l 0.34412,0.06213 a 0.22248891,0.22248891 159.26934 0 0 0.265271,-0.1004 L 60.742385,46.788025 A 2.2024181,2.2024181 39.931147 0 1 60.413658,46.512862 L 60.12881,46.222835 a 0.21731733,0.21731733 90.258064 0 1 0.0014,-0.305942 L 60.38028,45.6668 a 0.21731694,0.21731694 179.74189 0 1 0.305942,-0.0014 l 0.290028,0.284849 a 2.2024061,2.2024061 50.068884 0 1 0.275162,0.328728 l 0.194318,0.284366 a 0.23245136,0.23245136 25.569972 0 0 0.260175,0.124488 l -0.1004,-0.556061 a 2.4049033,2.4049033 84.8826 0 1 -0.03827,-0.427309 v -0.401267 a 0.21536809,0.21536809 135 0 1 0.215368,-0.215368 h 0.3586 a 0.21536809,0.21536809 45 0 1 0.215368,0.215368 v 0.401267 a 2.4049033,2.4049033 95.1174 0 1 -0.03827,0.427309 l -0.06213,0.34412 a 0.22248891,0.22248891 69.26934 0 0 0.1004,0.265271 L 62.6724,46.278998 a 2.2024278,2.2024278 129.93112 0 1 0.275163,-0.328727 l 0.290027,-0.284849 a 0.21731676,0.21731676 0.25809094 0 1 0.305942,0.0014 l 0.250092,0.250093 a 0.21731733,0.21731733 89.741936 0 1 0.0014,0.305942 l -0.284848,0.290027 a 2.2024181,2.2024181 140.06885 0 1 -0.328727,0.275163 l -0.284368,0.194317 a 0.23245161,0.23245161 115.56993 0 0 -0.124487,0.260176 l 0.556062,-0.1004 a 2.4049063,2.4049063 174.88261 0 1 0.427309,-0.03827 h 0.401266 a 0.21536809,0.21536809 45 0 1 0.215368,0.215368 v 0.358599 a 0.21536809,0.21536809 135 0 1 -0.215368,0.215368 h -0.401266 a 2.4049063,2.4049063 5.1173939 0 1 -0.427309,-0.03827 l -0.344121,-0.06213 a 0.22248896,0.22248896 159.26933 0 0 -0.265271,0.1004 l 0.462185,0.315826 a 2.2024181,2.2024181 39.931147 0 1 0.328727,0.275163 l 0.284848,0.290027 a 0.21731733,0.21731733 90.258064 0 1 -0.0014,0.305942 l -0.250092,0.250093 a 0.21731676,0.21731676 179.74191 0 1 -0.305942,0.0014 L 62.947563,49.046766 A 2.2024278,2.2024278 50.068877 0 1 62.6724,48.718039 l -0.194317,-0.284368 a 0.23245161,0.23245161 25.569933 0 0 -0.260176,-0.124487 l 0.1004,0.556061 a 2.4049033,2.4049033 84.8826 0 1 0.03827,0.427309 v 0.401267 a 0.21536809,0.21536809 135 0 1 -0.215368,0.215368 h -0.358597 a 0.21536809,0.21536809 45 0 1 -0.215368,-0.215368 l 0,-0.401263 a 2.4049033,2.4049033 95.1174 0 1 0.03827,-0.427309 l 0.06213,-0.34412 a 0.22248891,0.22248891 69.26934 0 0 -0.1004,-0.265271 l -0.315826,0.462184 a 2.2024061,2.2024061 129.93112 0 1 -0.275162,0.328728 l -0.290028,0.284849 a 0.21731694,0.21731694 0.25811491 0 1 -0.305942,-0.0014 l -0.250092,-0.250093 a 0.21731733,0.21731733 89.741936 0 1 -0.0014,-0.305942 l 0.284848,-0.290027 a 2.2024181,2.2024181 140.06885 0 1 0.328727,-0.275163 l 0.284368,-0.194317 a 0.23245161,0.23245161 115.56993 0 0 0.124487,-0.260176 l -0.556061,0.1004 a 2.4048382,2.4048382 174.88274 0 1 -0.427309,0.03827 l -0.40127,-2e-6 a 0.21536913,0.21536913 45.000138 0 1 -0.215368,-0.215369 z"
               id="path3"
               transform="matrix(4.3071715,0,0,4.3071715,-224.98375,863.19375)"
               aria-label="*" /></g></g></g><path
         style="font-weight:bold;font-size:10.6667px;line-height:17.0079px;font-family:'Space Grotesk';-inkscape-font-specification:'Space Grotesk Bold';text-align:center;text-anchor:middle;white-space:pre;display:inline;fill:#ff002d;fill-opacity:1;stroke-width:2;stroke-linecap:round;stroke-linejoin:round;stroke-miterlimit:4.6"
         d="m 59.551235,47.677818 v -0.358599 a 0.21536809,0.21536809 135 0 1 0.215368,-0.215368 h 0.401267 a 2.4049033,2.4049033 5.1174004 0 1 0.427309,0.03827 l 0.34412,0.06213 a 0.22248891,0.22248891 159.26934 0 0 0.265271,-0.1004 L 60.742385,46.788025 A 2.2024181,2.2024181 39.931147 0 1 60.413658,46.512862 L 60.12881,46.222835 a 0.21731733,0.21731733 90.258064 0 1 0.0014,-0.305942 L 60.38028,45.6668 a 0.21731694,0.21731694 179.74189 0 1 0.305942,-0.0014 l 0.290028,0.284849 a 2.2024061,2.2024061 50.068884 0 1 0.275162,0.328728 l 0.194318,0.284366 a 0.23245136,0.23245136 25.569972 0 0 0.260175,0.124488 l -0.1004,-0.556061 a 2.4049033,2.4049033 84.8826 0 1 -0.03827,-0.427309 v -0.401267 a 0.21536809,0.21536809 135 0 1 0.215368,-0.215368 h 0.3586 a 0.21536809,0.21536809 45 0 1 0.215368,0.215368 v 0.401267 a 2.4049033,2.4049033 95.1174 0 1 -0.03827,0.427309 l -0.06213,0.34412 a 0.22248891,0.22248891 69.26934 0 0 0.1004,0.265271 L 62.6724,46.278998 a 2.2024278,2.2024278 129.93112 0 1 0.275163,-0.328727 l 0.290027,-0.284849 a 0.21731676,0.21731676 0.25809094 0 1 0.305942,0.0014 l 0.250092,0.250093 a 0.21731733,0.21731733 89.741936 0 1 0.0014,0.305942 l -0.284848,0.290027 a 2.2024181,2.2024181 140.06885 0 1 -0.328727,0.275163 l -0.284368,0.194317 a 0.23245161,0.23245161 115.56993 0 0 -0.124487,0.260176 l 0.556062,-0.1004 a 2.4049063,2.4049063 174.88261 0 1 0.427309,-0.03827 h 0.401266 a 0.21536809,0.21536809 45 0 1 0.215368,0.215368 v 0.358599 a 0.21536809,0.21536809 135 0 1 -0.215368,0.215368 h -0.401266 a 2.4049063,2.4049063 5.1173939 0 1 -0.427309,-0.03827 l -0.344121,-0.06213 a 0.22248896,0.22248896 159.26933 0 0 -0.265271,0.1004 l 0.462185,0.315826 a 2.2024181,2.2024181 39.931147 0 1 0.328727,0.275163 l 0.284848,0.290027 a 0.21731733,0.21731733 90.258064 0 1 -0.0014,0.305942 l -0.250092,0.250093 a 0.21731676,0.21731676 179.74191 0 1 -0.305942,0.0014 L 62.947563,49.046766 A 2.2024278,2.2024278 50.068877 0 1 62.6724,48.718039 l -0.194317,-0.284368 a 0.23245161,0.23245161 25.569933 0 0 -0.260176,-0.124487 l 0.1004,0.556061 a 2.4049033,2.4049033 84.8826 0 1 0.03827,0.427309 v 0.401267 a 0.21536809,0.21536809 135 0 1 -0.215368,0.215368 h -0.358597 a 0.21536809,0.21536809 45 0 1 -0.215368,-0.215368 l 0,-0.401263 a 2.4049033,2.4049033 95.1174 0 1 0.03827,-0.427309 l 0.06213,-0.34412 a 0.22248891,0.22248891 69.26934 0 0 -0.1004,-0.265271 l -0.315826,0.462184 a 2.2024061,2.2024061 129.93112 0 1 -0.275162,0.328728 l -0.290028,0.284849 a 0.21731694,0.21731694 0.25811491 0 1 -0.305942,-0.0014 l -0.250092,-0.250093 a 0.21731733,0.21731733 89.741936 0 1 -0.0014,-0.305942 l 0.284848,-0.290027 a 2.2024181,2.2024181 140.06885 0 1 0.328727,-0.275163 l 0.284368,-0.194317 a 0.23245161,0.23245161 115.56993 0 0 0.124487,-0.260176 l -0.556061,0.1004 a 2.4048382,2.4048382 174.88274 0 1 -0.427309,0.03827 l -0.40127,-2e-6 a 0.21536913,0.21536913 45.000138 0 1 -0.215368,-0.215369 z"
         id="path25"
         transform="matrix(3.5608895,0,0,3.5608895,-211.77433,832.02064)"
         aria-label="*" /></g><g
       id="g29"
       style="display:inline;fill:#bd0f3b;fill-opacity:1"
       transform="matrix(0.60654869,0,0,0.57841866,47.459516,-100.11284)"><g
         id="g94"
         transform="matrix(0.36496298,0,0,0.36496298,25.17513,820.82136)"
         style="display:inline;fill:#bd0f3b;fill-opacity:1"><g
           id="g82"><rect
             style="fill:#4a0517;fill-opacity:1;stroke-width:4.70947;stroke-linecap:round;stroke-linejoin:round;stroke-miterlimit:4.6"
             id="rect27"
             width="45.989639"
             height="48.226238"
             x="117.01206"
             y="1154.145" /><text
             xml:space="preserve"
             style="font-weight:bold;font-size:7.67943px;line-height:9.0702px;font-family:'Space Grotesk';-inkscape-font-specification:'Space Grotesk Bold';text-align:center;writing-mode:lr-tb;direction:ltr;text-anchor:middle;fill:#ffffff;fill-opacity:1;stroke-width:1.71873;stroke-linecap:round;stroke-linejoin:round;stroke-miterlimit:4.6"
             x="142.65067"
             y="1152.6305"
             id="text78"
             transform="scale(0.97653609,1.0240277)"><tspan
               style="font-size:7.67943px;line-height:9.0702px;fill:#ffffff;fill-opacity:1;stroke-width:1.71873"
               x="142.65067"
               y="1152.6305"
               id="tspan78">#4a0517ff</tspan></text></g><g
           id="g91"
           transform="translate(115.71099,-48.228143)"><rect
             style="fill:#ffffff;fill-opacity:1;stroke-width:4.70947;stroke-linecap:round;stroke-linejoin:round;stroke-miterlimit:4.6"
             id="rect90"
             width="45.989639"
             height="48.226238"
             x="24.883722"
             y="1154.033" /><text
             xml:space="preserve"
             style="font-weight:bold;font-size:7.67943px;line-height:9.0702px;font-family:'Space Grotesk';-inkscape-font-specification:'Space Grotesk Bold';text-align:center;writing-mode:lr-tb;direction:ltr;text-anchor:middle;fill:#c90023;fill-opacity:1;stroke-width:1.71873;stroke-linecap:round;stroke-linejoin:round;stroke-miterlimit:4.6"
             x="48.258865"
             y="1152.7366"
             id="text91"
             transform="scale(0.97653609,1.0240277)"><tspan
               style="font-size:7.67943px;line-height:9.0702px;stroke-width:1.71873"
               x="48.258865"
               y="1152.7366"
               id="tspan90">#ffffffff</tspan><tspan
               style="font-size:7.67943px;line-height:9.0702px;stroke-width:1.71873"
               x="48.258865"
               y="1161.8068"
               id="tspan91" /></text></g><g
           id="g92"><rect
             style="fill:#bd0f3b;fill-opacity:1;stroke-width:4.70947;stroke-linecap:round;stroke-linejoin:round;stroke-miterlimit:4.6"
             id="rect91"
             width="45.989639"
             height="48.226238"
             x="162.94597"
             y="1154.0209" /><text
             xml:space="preserve"
             style="font-weight:bold;font-size:7.67943px;line-height:9.0702px;font-family:'Space Grotesk';-inkscape-font-specification:'Space Grotesk Bold';text-align:center;writing-mode:lr-tb;direction:ltr;text-anchor:middle;fill:#ffffff;fill-opacity:1;stroke-width:1.71873;stroke-linecap:round;stroke-linejoin:round;stroke-miterlimit:4.6"
             x="190.2708"
             y="1153.0547"
             id="text92"
             transform="scale(0.97653609,1.0240277)"><tspan
               style="font-size:7.67943px;line-height:9.0702px;fill:#ffffff;fill-opacity:1;stroke-width:1.71873"
               x="190.2708"
               y="1153.0547"
               id="tspan92">#bd0f3bff</tspan></text></g><g
           id="g100"
           transform="translate(69.748902,-14.871751)"
           style="display:inline;fill:#bd0f3b;fill-opacity:1"><path
             style="fill:#ff002d;fill-opacity:1;stroke-width:3.06169;stroke-linecap:round;stroke-linejoin:round;stroke-miterlimit:4.6"
             id="rect100"
             width="45.989639"
             height="20.382629"
             x="70.919258"
             y="1159.5826"
             d="M 81.164932,1159.5826 H 116.9089 v 12.3957 a 7.9869901,7.9869901 135 0 1 -7.98699,7.987 H 70.919258 v -10.137 a 10.245674,10.245674 135 0 1 10.245674,-10.2457 z" /><text
             xml:space="preserve"
             style="font-weight:bold;font-size:7.67943px;line-height:9.0702px;font-family:'Space Grotesk';-inkscape-font-specification:'Space Grotesk Bold';text-align:center;writing-mode:lr-tb;direction:ltr;text-anchor:middle;fill:#ffffff;fill-opacity:1;stroke-width:1.71873;stroke-linecap:round;stroke-linejoin:round;stroke-miterlimit:4.6"
             x="95.943825"
             y="1145.3979"
             id="text100"
             transform="scale(0.97653609,1.0240277)"><tspan
               style="font-size:7.67943px;line-height:9.0702px;fill:#ffffff;fill-opacity:1;stroke-width:1.71873"
               x="95.943825"
               y="1145.3979"
               id="tspan100">DARK MODE</tspan></text></g></g><g
         id="g96"
         transform="matrix(0.36496298,0,0,0.36496298,19.883256,820.74207)"
         style="display:inline;fill:#bd0f3b;fill-opacity:1"><g
           id="g84"><rect
             style="fill:#ffffff;fill-opacity:1;stroke-width:4.70947;stroke-linecap:round;stroke-linejoin:round;stroke-miterlimit:4.6"
             id="rect29"
             width="45.989639"
             height="48.226238"
             x="24.883722"
             y="1154.033" /><text
             xml:space="preserve"
             style="font-weight:bold;font-size:7.67943px;line-height:9.0702px;font-family:'Space Grotesk';-inkscape-font-specification:'Space Grotesk Bold';text-align:center;writing-mode:lr-tb;direction:ltr;text-anchor:middle;fill:#c90023;fill-opacity:1;stroke-width:1.71873;stroke-linecap:round;stroke-linejoin:round;stroke-miterlimit:4.6"
             x="48.258865"
             y="1152.7366"
             id="text71"
             transform="scale(0.97653609,1.0240277)"><tspan
               style="font-size:7.67943px;line-height:9.0702px;stroke-width:1.71873"
               x="48.258865"
               y="1152.7366"
               id="tspan73">#ffffffff</tspan><tspan
               style="font-size:7.67943px;line-height:9.0702px;stroke-width:1.71873"
               x="48.258865"
               y="1161.8068"
               id="tspan72" /></text></g><g
           id="g83"><rect
             style="fill:#ff002d;fill-opacity:1;stroke-width:4.70947;stroke-linecap:round;stroke-linejoin:round;stroke-miterlimit:4.6"
             id="rect28"
             width="45.989639"
             height="48.226238"
             x="70.919258"
             y="1154.1395" /><text
             xml:space="preserve"
             style="font-weight:bold;font-size:7.67943px;line-height:9.0702px;font-family:'Space Grotesk';-inkscape-font-specification:'Space Grotesk Bold';text-align:center;writing-mode:lr-tb;direction:ltr;text-anchor:middle;fill:#ffffff;fill-opacity:1;stroke-width:1.71873;stroke-linecap:round;stroke-linejoin:round;stroke-miterlimit:4.6"
             x="95.330513"
             y="1152.3489"
             id="text76"
             transform="scale(0.97653609,1.0240277)"><tspan
               style="font-size:7.67943px;line-height:9.0702px;fill:#ffffff;fill-opacity:1;stroke-width:1.71873"
               x="95.330513"
               y="1152.3489"
               id="tspan76">#c90023ff</tspan></text></g><g
           id="g95"><g
             id="g93"
             transform="translate(-114.53923,-48.228143)"><rect
               style="fill:#bd0f3b;fill-opacity:1;stroke-width:4.70947;stroke-linecap:round;stroke-linejoin:round;stroke-miterlimit:4.6"
               id="rect92"
               width="45.989639"
               height="48.226238"
               x="162.94597"
               y="1154.0209" /><text
               xml:space="preserve"
               style="font-weight:bold;font-size:7.67943px;line-height:9.0702px;font-family:'Space Grotesk';-inkscape-font-specification:'Space Grotesk Bold';text-align:center;writing-mode:lr-tb;direction:ltr;text-anchor:middle;fill:#ffffff;fill-opacity:1;stroke-width:1.71873;stroke-linecap:round;stroke-linejoin:round;stroke-miterlimit:4.6"
               x="190.2708"
               y="1153.0547"
               id="text93"
               transform="scale(0.97653609,1.0240277)"><tspan
                 style="font-size:7.67943px;line-height:9.0702px;fill:#ffffff;fill-opacity:1;stroke-width:1.71873"
                 x="190.2708"
                 y="1153.0547"
                 id="tspan93">#bd0f3bff</tspan></text></g></g><g
           id="g99"
           transform="translate(-22.559473,-15.073232)"><path
             style="fill:#4a0517;fill-opacity:1;stroke-width:3.06169;stroke-linecap:round;stroke-linejoin:round;stroke-miterlimit:4.6"
             id="rect99"
             width="45.989639"
             height="20.382629"
             x="70.919258"
             y="1159.5826"
             d="M 80.317926,1159.5826 H 116.9089 v 9.8547 a 10.52801,10.52801 135 0 1 -10.52801,10.528 H 70.919258 v -10.984 a 9.3986676,9.3986676 135 0 1 9.398668,-9.3987 z" /><text
             xml:space="preserve"
             style="font-weight:bold;font-size:7.67943px;line-height:9.0702px;font-family:'Space Grotesk';-inkscape-font-specification:'Space Grotesk Bold';text-align:center;writing-mode:lr-tb;direction:ltr;text-anchor:middle;fill:#ffffff;fill-opacity:1;stroke-width:1.71873;stroke-linecap:round;stroke-linejoin:round;stroke-miterlimit:4.6"
             x="95.943825"
             y="1145.3979"
             id="text99"
             transform="scale(0.97653609,1.0240277)"><tspan
               style="font-size:7.67943px;line-height:9.0702px;fill:#ffffff;fill-opacity:1;stroke-width:1.71873"
               x="95.943825"
               y="1145.3979"
               id="tspan99">LIGHT MODE</tspan></text></g></g></g><g
       id="layer1"
       style="display:none"
       transform="translate(14.120934,566.94304)"><g
         id="g16"
         transform="matrix(0.92322109,0,0,0.92322109,36.67015,-932.61968)"
         style="display:inline"><path
           style="font-weight:bold;font-size:10.6667px;line-height:17.0079px;font-family:'Space Grotesk';-inkscape-font-specification:'Space Grotesk Bold';text-align:center;text-anchor:middle;white-space:pre;fill:#ffffff;fill-opacity:1;stroke-width:2;stroke-linecap:round;stroke-linejoin:round;stroke-miterlimit:4.6"
           d="m 60.808044,47.834357 v -0.789335 h 0.832003 l -0.488807,0.197496 0.05333,-0.138667 -0.640002,-0.437335 -0.586668,-0.597335 0.527927,-0.469099 0.624077,0.501099 0.437334,0.640002 0.138667,-0.05333 -0.138667,-0.768002 v -0.832003 h 0.789336 v 0.832003 l -0.138667,0.768002 0.138667,0.05333 0.437335,-0.640002 0.597335,-0.586669 0.554668,0.554669 -0.586668,0.597335 -0.640002,0.437335 0.05333,0.138667 0.768003,-0.138667 h 0.832002 v 0.789335 h -0.832002 l -0.768003,-0.138667 -0.05333,0.138667 0.640002,0.437335 0.586668,0.597335 -0.554668,0.554669 -0.597335,-0.586669 -0.437335,-0.640002 -0.138667,0.05333 0.138667,0.768002 v 0.832003 H 61.567241 V 49.07719 l 0.138667,-0.768002 -0.138667,-0.05333 -0.437334,0.640002 -0.682906,0.485055 -0.469098,-0.453055 0.586668,-0.597335 0.640002,-0.437335 -0.05333,-0.138667 0.488807,0.07984 z"
           id="path9"
           transform="matrix(3.3107959,0,0,3.3107959,-159.00485,910.26166)"
           aria-label="*" /><text
           xml:space="preserve"
           transform="matrix(1.8089309,0,0,1.8089309,-73.369426,979.14098)"
           id="text16"
           style="font-style:normal;font-variant:normal;font-weight:normal;font-stretch:normal;font-size:10.6667px;line-height:0;font-family:'Space Grotesk';-inkscape-font-specification:'Space Grotesk';text-align:center;writing-mode:lr-tb;direction:ltr;white-space:pre;shape-inside:url(#rect16);display:inline;fill:#ffffff;stroke-width:2;stroke-linecap:round;stroke-linejoin:round;stroke-miterlimit:4.6"
           x="25.947771"
           y="0"><tspan
             x="58.409901"
             y="52.554535"
             id="tspan5"><tspan
               style="font-weight:bold;line-height:17.0079px;-inkscape-font-specification:'Space Grotesk Bold'"
               id="tspan4">D</tspan></tspan></text><g
           id="g23"
           style="display:inline"
           transform="matrix(0.65929578,0,0,0.65929578,30.436201,362.46061)"><g
             id="g22"
             transform="matrix(0.6598151,0,0,0.6598151,15.285834,358.32804)"><text
               xml:space="preserve"
               transform="matrix(6.614116,0,0,3.1507915,-367.77745,955.23432)"
               id="text22"
               style="font-style:normal;font-variant:normal;font-weight:normal;font-stretch:normal;font-size:10.6667px;line-height:0;font-family:'Space Grotesk';-inkscape-font-specification:'Space Grotesk';text-align:center;writing-mode:lr-tb;direction:ltr;white-space:pre;shape-inside:url(#rect22);display:inline;fill:#ffffff;stroke-width:2;stroke-linecap:round;stroke-linejoin:round;stroke-miterlimit:4.6"
               x="25.947771"
               y="0"><tspan
                 x="60.660579"
                 y="44.050584"
                 id="tspan6">I</tspan></text></g><path
             style="font-weight:bold;font-size:10.6667px;line-height:17.0079px;font-family:'Space Grotesk';-inkscape-font-specification:'Space Grotesk Bold';text-align:center;text-anchor:middle;white-space:pre;fill:#ffffff;fill-opacity:1;stroke-width:2;stroke-linecap:round;stroke-linejoin:round;stroke-miterlimit:4.6"
             d="m 59.551235,47.893186 v -0.789335 h 0.832003 l 0.768002,0.138667 0.05333,-0.138667 -0.640002,-0.437335 -0.586668,-0.597335 0.554668,-0.554669 0.597336,0.586669 0.437334,0.640002 0.138667,-0.05333 -0.138667,-0.768002 v -0.832003 h 0.789336 v 0.832003 l -0.138667,0.768002 0.138667,0.05333 0.437335,-0.640002 0.597335,-0.586669 0.554668,0.554669 -0.586668,0.597335 -0.640002,0.437335 0.05333,0.138667 0.768003,-0.138667 h 0.832002 v 0.789335 h -0.832002 l -0.768003,-0.138667 -0.05333,0.138667 0.640002,0.437335 0.586668,0.597335 -0.554668,0.554669 -0.597335,-0.586669 -0.437335,-0.640002 -0.138667,0.05333 0.138667,0.768002 v 0.832003 H 61.567241 V 49.07719 l 0.138667,-0.768002 -0.138667,-0.05333 -0.437334,0.640002 -0.597336,0.586669 -0.554668,-0.554669 0.586668,-0.597335 0.640002,-0.437335 -0.05333,-0.138667 -0.768002,0.138667 z"
             id="path22"
             transform="matrix(2.8419368,0,0,2.8419368,-133.16184,927.87631)"
             aria-label="*" /></g></g><g
         id="g24"
         style="display:inline;fill:url(#linearGradient45);fill-opacity:1"
         transform="matrix(0.72360245,0,0,0.72360245,7.532405,-720.68684)"><path
           id="path14"
           d="m 33.257345,1053.8407 h 20.114627 a 4.1079211,4.1079211 45 0 1 4.107921,4.1079 v 20.1147 a 4.1079211,4.1079211 135 0 1 -4.107921,4.1079 H 33.257345 a 4.1079211,4.1079211 45 0 1 -4.107921,-4.1079 l 0,-20.1147 a 4.1079211,4.1079211 135 0 1 4.107921,-4.1079 z"
           style="display:inline;fill:url(#linearGradient15);fill-opacity:1;stroke-width:1.13322;stroke-linecap:round;stroke-linejoin:round;stroke-miterlimit:4.6"
           transform="translate(33.517963,0.41003574)" /><path
           d="m 61.513915,44.050584 v -7.46669 h 0.896003 l 0,6.570687 a 0.896003,0.896003 135 0 1 -0.896003,0.896003 z"
           id="path16"
           style="font-size:10.6667px;line-height:0;font-family:'Space Grotesk';-inkscape-font-specification:'Space Grotesk';text-align:center;white-space:pre;display:inline;fill:#ffffff;fill-opacity:1;stroke-width:2;stroke-linecap:round;stroke-linejoin:round;stroke-miterlimit:4.6"
           transform="matrix(3.9750425,0,0,1.8057859,-169.45296,1000.0471)"
           aria-label="I" /><path
           style="font-weight:bold;font-size:10.6667px;line-height:17.0079px;font-family:'Space Grotesk';-inkscape-font-specification:'Space Grotesk Bold';text-align:center;text-anchor:middle;white-space:pre;display:inline;fill:#ffffff;fill-opacity:1;stroke-width:2;stroke-linecap:round;stroke-linejoin:round;stroke-miterlimit:4.6"
           d="m 59.551235,47.677818 v -0.358599 a 0.21536809,0.21536809 135 0 1 0.215368,-0.215368 h 0.401267 a 2.4049033,2.4049033 5.1174004 0 1 0.427309,0.03827 l 0.34412,0.06213 a 0.22248891,0.22248891 159.26934 0 0 0.265271,-0.1004 L 60.742385,46.788025 A 2.2024181,2.2024181 39.931147 0 1 60.413658,46.512862 L 60.12881,46.222835 a 0.21731733,0.21731733 90.258064 0 1 0.0014,-0.305942 L 60.38028,45.6668 a 0.21731694,0.21731694 179.74189 0 1 0.305942,-0.0014 l 0.290028,0.284849 a 2.2024061,2.2024061 50.068884 0 1 0.275162,0.328728 l 0.194318,0.284366 a 0.23245136,0.23245136 25.569972 0 0 0.260175,0.124488 l -0.1004,-0.556061 a 2.4049033,2.4049033 84.8826 0 1 -0.03827,-0.427309 v -0.401267 a 0.21536809,0.21536809 135 0 1 0.215368,-0.215368 h 0.3586 a 0.21536809,0.21536809 45 0 1 0.215368,0.215368 v 0.401267 a 2.4049033,2.4049033 95.1174 0 1 -0.03827,0.427309 l -0.06213,0.34412 a 0.22248891,0.22248891 69.26934 0 0 0.1004,0.265271 L 62.6724,46.278998 a 2.2024278,2.2024278 129.93112 0 1 0.275163,-0.328727 l 0.290027,-0.284849 a 0.21731676,0.21731676 0.25809094 0 1 0.305942,0.0014 l 0.250092,0.250093 a 0.21731733,0.21731733 89.741936 0 1 0.0014,0.305942 l -0.284848,0.290027 a 2.2024181,2.2024181 140.06885 0 1 -0.328727,0.275163 l -0.284368,0.194317 a 0.23245161,0.23245161 115.56993 0 0 -0.124487,0.260176 l 0.556062,-0.1004 a 2.4049063,2.4049063 174.88261 0 1 0.427309,-0.03827 h 0.401266 a 0.21536809,0.21536809 45 0 1 0.215368,0.215368 v 0.358599 a 0.21536809,0.21536809 135 0 1 -0.215368,0.215368 h -0.401266 a 2.4049063,2.4049063 5.1173939 0 1 -0.427309,-0.03827 l -0.344121,-0.06213 a 0.22248896,0.22248896 159.26933 0 0 -0.265271,0.1004 l 0.462185,0.315826 a 2.2024181,2.2024181 39.931147 0 1 0.328727,0.275163 l 0.284848,0.290027 a 0.21731733,0.21731733 90.258064 0 1 -0.0014,0.305942 l -0.250092,0.250093 a 0.21731676,0.21731676 179.74191 0 1 -0.305942,0.0014 L 62.947563,49.046766 A 2.2024278,2.2024278 50.068877 0 1 62.6724,48.718039 l -0.194317,-0.284368 a 0.23245161,0.23245161 25.569933 0 0 -0.260176,-0.124487 l 0.1004,0.556061 a 2.4049033,2.4049033 84.8826 0 1 0.03827,0.427309 v 0.401267 a 0.21536809,0.21536809 135 0 1 -0.215368,0.215368 h -0.358597 a 0.21536809,0.21536809 45 0 1 -0.215368,-0.215368 l 0,-0.401263 a 2.4049033,2.4049033 95.1174 0 1 0.03827,-0.427309 l 0.06213,-0.34412 a 0.22248891,0.22248891 69.26934 0 0 -0.1004,-0.265271 l -0.315826,0.462184 a 2.2024061,2.2024061 129.93112 0 1 -0.275162,0.328728 l -0.290028,0.284849 a 0.21731694,0.21731694 0.25811491 0 1 -0.305942,-0.0014 l -0.250092,-0.250093 a 0.21731733,0.21731733 89.741936 0 1 -0.0014,-0.305942 l 0.284848,-0.290027 a 2.2024181,2.2024181 140.06885 0 1 0.328727,-0.275163 l 0.284368,-0.194317 a 0.23245161,0.23245161 115.56993 0 0 0.124487,-0.260176 l -0.556061,0.1004 a 2.4048382,2.4048382 174.88274 0 1 -0.427309,0.03827 l -0.40127,-2e-6 a 0.21536913,0.21536913 45.000138 0 1 -0.215368,-0.215369 z"
           id="path17"
           transform="matrix(2.5885831,0,0,2.468532,-83.634838,947.29665)"
           aria-label="*" /></g><g
         id="g34"
         transform="matrix(0.15297019,0,0,-0.14587586,49.400125,297.82809)"
         style="display:inline;fill:#bd0f3b;fill-opacity:1"><rect
           style="fill:#ff002c;fill-opacity:1;stroke-width:4.70947;stroke-linecap:round;stroke-linejoin:round;stroke-miterlimit:4.6"
           id="rect31"
           width="45.989639"
           height="48.226238"
           x="55.405136"
           y="1203.2383" /><rect
           style="fill:#0b074d;fill-opacity:1;stroke-width:4.70947;stroke-linecap:round;stroke-linejoin:round;stroke-miterlimit:4.6"
           id="rect32"
           width="45.989639"
           height="48.226238"
           x="9.4712219"
           y="-1203.5624"
           transform="scale(1,-1)" /><rect
           style="fill:#370b9c;fill-opacity:1;stroke-width:4.70947;stroke-linecap:round;stroke-linejoin:round;stroke-miterlimit:4.6"
           id="rect33"
           width="45.989639"
           height="48.226238"
           x="55.59095"
           y="1155.4427" /><rect
           style="fill:#ffffff;fill-opacity:1;stroke-width:4.70947;stroke-linecap:round;stroke-linejoin:round;stroke-miterlimit:4.6"
           id="rect34"
           width="45.989639"
           height="48.226238"
           x="9.5554142"
           y="-1252.0493"
           transform="scale(1,-1)" /></g></g><g
       id="layer4"
       style="display:inline"
       transform="translate(14.120934,566.94304)"><g
         id="g38"
         style="display:inline"
         transform="matrix(0.54164245,0,0,0.54164245,40.696309,-291.70642)"><g
           id="g39"
           transform="matrix(-0.40673574,0.32706307,-0.32706307,-0.40673574,267.47299,934.61321)"><path
             style="display:inline;fill:#ff002c;fill-opacity:1;stroke-width:2;stroke-linecap:round;stroke-linejoin:round;stroke-miterlimit:4.6"
             d="m 40.835414,92.100653 c -1.692148,1.043377 -1.944543,2.209708 -1.944543,2.209708 l 1.59099,0.265165 -1.237437,1.944544 2.916815,0.53033 c 0,0 5.922019,-3.712311 12.727922,-5.303301 6.805902,-1.59099 -12.361599,-0.689823 -14.053747,0.353554 z"
             id="path35"
             transform="translate(14.120934,566.94304)" /><path
             style="display:inline;fill:#ffffff;fill-opacity:1;stroke-width:2;stroke-linecap:round;stroke-linejoin:round;stroke-miterlimit:4.6"
             d="m 71.672373,659.53749 c 0,0 4.40364,4.70606 9.15906,0.41726 4.75542,-4.2888 17.876355,2.18087 6.348562,-3.27282 -11.52779,-5.4537 -14.858389,-2.26076 -15.643024,-1.09991 -1.537595,2.27483 0.135402,3.95547 0.135402,3.95547 z"
             id="path36" /><path
             id="path41"
             style="fill:#ff002c;fill-opacity:1;stroke-width:1.58855;stroke-linecap:round;stroke-linejoin:round;stroke-miterlimit:4.6"
             d="m 48.24893,658.56063 0.186546,-3.35296 1.872669,2.26318 z m 1.645334,-2.80495 3.229872,-0.91927 -1.52707,2.50937 z m 8.629994,11.89623 -2.961255,-1.58369 0.959821,2.77626 z m -3.251481,-0.0526 -2.464345,2.28125 h 2.937499 z" /><path
             style="display:inline;fill:#ff002c;fill-opacity:1;stroke-width:2;stroke-linecap:round;stroke-linejoin:round;stroke-miterlimit:4.6"
             d="m 38.999998,92.249994 c 0,0 -11.25,-0.125 -26.124999,13.499996 -14.8749989,13.625 -6.3749994,12.125 10.625,2.125 16.999999,-9.999996 16.999999,-9.999996 16.999999,-9.999996 l -3.125,-0.5 1.25,-1.875 -2.75,0.125 z"
             id="path34"
             transform="translate(14.120934,566.94304)" /></g><g
           id="layer5"
           transform="translate(4.9959345,567.94304)"
           style="display:inline"><rect
             style="display:inline;fill:#ff002c;fill-opacity:1;stroke-width:2;stroke-linecap:round;stroke-linejoin:round;stroke-miterlimit:4.6"
             id="rect41"
             width="25"
             height="15"
             x="37.999996"
             y="112.24999" /><path
             style="display:inline;fill:#c90023;fill-opacity:1;stroke-width:2;stroke-linecap:round;stroke-linejoin:round;stroke-miterlimit:4.6"
             d="m 38.249998,112.37499 24.515163,0.16161 -12.265164,9.08839 z"
             id="path42" /><rect
             style="display:inline;fill:#ffffff;fill-opacity:1;stroke-width:2;stroke-linecap:round;stroke-linejoin:round;stroke-miterlimit:4.6"
             id="rect43"
             width="15"
             height="20"
             x="42.899582"
             y="103.42677" /><path
             style="display:inline;fill:#ff002c;fill-opacity:1;stroke-width:2;stroke-linecap:round;stroke-linejoin:round;stroke-miterlimit:4.6"
             d="m 38.124998,112.37499 c 12.624999,9.75 12.624999,9.75 12.624999,9.75 l 11.937499,-9.6875 0.125,15 -24.812498,-0.0625 z"
             id="path43" /><path
             id="rect50"
             style="fill:#ff002c;fill-opacity:1;stroke-width:2;stroke-linecap:round;stroke-linejoin:round;stroke-miterlimit:4.6"
             d="m 44.837891,105.58398 v 0.8125 h 11.125 v -0.8125 z m 0.03125,2.84375 v 0.8125 h 11.125 v -0.8125 z m 0.03125,2.78125 v 0.8125 h 11.125 v -0.8125 z m 0.03125,2.78125 v 0.8125 h 11.125 v -0.8125 z" /></g><g
           id="g32"
           style="display:inline;fill:#bd0f3b;fill-opacity:1"
           transform="matrix(0.51106548,0,0,0.51106548,61.752254,147.49466)"><path
             style="display:inline;fill:#bd0f3b;fill-opacity:1;stroke-width:2.76395;stroke-linecap:round;stroke-linejoin:round;stroke-miterlimit:4.6"
             id="path13"
             d="m 94.009808,1132.2906 a 34.549358,34.549358 0 0 1 -34.369596,34.5489 34.549358,34.549358 0 0 1 -34.727251,-34.1893 34.549358,34.549358 0 0 1 34.008219,-34.9047 34.549358,34.549358 0 0 1 35.081145,33.8261"
             transform="matrix(0.72360245,0,0,0.72360245,3.7846216,228.34458)" /><path
             id="path15"
             style="font-weight:bold;font-size:10.6667px;line-height:17.0079px;font-family:'Space Grotesk';-inkscape-font-specification:'Space Grotesk Bold';text-align:center;text-anchor:middle;white-space:pre;display:inline;fill:#ffffff;fill-opacity:1;stroke-width:2;stroke-linecap:round;stroke-linejoin:round;stroke-miterlimit:4.6"
             d="m 67.454898,45.028408 c -0.118899,3.2e-5 -0.215278,0.09641 -0.21531,0.21531 v 0.401386 c -7.5e-5,0.143306 0.01266,0.286332 0.03805,0.427371 l 0.100694,0.555908 c -0.105112,0.02392 -0.212881,-0.02756 -0.260321,-0.12436 l -0.194428,-0.28445 c -0.08082,-0.118196 -0.172985,-0.228228 -0.27517,-0.328534 l -0.290019,-0.284914 c -0.08507,-0.08346 -0.221492,-0.08284 -0.305796,0.0014 l -0.250112,0.250112 c -0.08424,0.08431 -0.08486,0.220724 -0.0014,0.305796 l 0.284915,0.290019 c 0.100306,0.102185 0.210337,0.194344 0.328533,0.275169 l 0.462174,0.316005 c -0.05289,0.09258 -0.164034,0.134628 -0.264961,0.10023 l -0.344311,-0.06218 c -0.141039,-0.02539 -0.284065,-0.03813 -0.427371,-0.03805 h -0.401386 c -0.118899,3.2e-5 -0.215278,0.09641 -0.21531,0.21531 v 0.358695 c 3.3e-5,0.118899 0.09641,0.215277 0.21531,0.21531 h 0.401386 c 0.14332,-7.9e-5 0.286346,-0.01297 0.427371,-0.03852 l 0.555908,-0.10023 c 0.02392,0.105112 -0.02756,0.212881 -0.12436,0.260321 l -0.28445,0.193964 c -0.118196,0.08083 -0.228227,0.172985 -0.328533,0.27517 l -0.284915,0.290019 c -0.08377,0.08513 -0.08314,0.221901 0.0014,0.306259 l 0.250112,0.250112 c 0.0843,0.08424 0.220724,0.08486 0.305796,0.0014 l 0.290019,-0.284915 c 0.102209,-0.100452 0.194369,-0.21064 0.27517,-0.328997 l 0.316004,-0.462174 c 0.09281,0.05293 0.134884,0.16436 0.100231,0.265425 l -0.06218,0.34431 c -0.02536,0.140887 -0.0381,0.283756 -0.03805,0.426908 v 0.401386 c 3.2e-5,0.118899 0.09641,0.215278 0.21531,0.21531 h 0.358695 c 0.118899,-3.2e-5 0.215278,-0.09641 0.21531,-0.21531 v -0.401386 c -1.07e-4,-0.143166 -0.013,-0.286036 -0.03852,-0.426908 l -0.10023,-0.556371 c 0.105112,-0.02392 0.212881,0.02756 0.260321,0.12436 l 0.194428,0.28445 c 0.0808,0.118357 0.172961,0.228545 0.27517,0.328997 l 0.290019,0.284915 c 0.08507,0.08346 0.221492,0.08284 0.305796,-0.0014 l 0.250112,-0.250112 c 0.08454,-0.08436 0.08517,-0.221131 0.0014,-0.306259 l -0.284915,-0.290019 c -0.100306,-0.102185 -0.210337,-0.194344 -0.328533,-0.27517 l -0.462174,-0.31554 c 0.05275,-0.09276 0.163921,-0.135012 0.264961,-0.100695 l 0.344311,0.06218 c 0.141025,0.02555 0.284051,0.03844 0.427371,0.03852 h 0.400922 c 0.118899,-3.2e-5 0.215278,-0.09641 0.21531,-0.21531 v -0.358695 c -3.2e-5,-0.118899 -0.09641,-0.215278 -0.21531,-0.21531 H 69.42842 c -0.143306,-7.5e-5 -0.286332,0.01266 -0.427371,0.03805 l -0.556372,0.100231 c -0.02361,-0.105076 0.02804,-0.212613 0.124824,-0.259857 l 0.28445,-0.194429 c 0.118196,-0.08082 0.228227,-0.172984 0.328533,-0.275169 l 0.284915,-0.290019 c 0.08346,-0.08507 0.08284,-0.221491 -0.0014,-0.305796 l -0.250112,-0.250112 c -0.0843,-0.08424 -0.220724,-0.08486 -0.305796,-0.0014 l -0.290019,0.284914 c -0.102185,0.100306 -0.194344,0.210338 -0.27517,0.328534 l -0.316004,0.462173 c -0.0928,-0.05293 -0.134883,-0.164361 -0.10023,-0.265425 l 0.06171,-0.343846 c 0.02555,-0.141025 0.03844,-0.284051 0.03852,-0.427371 v -0.401386 c -3.2e-5,-0.118899 -0.09641,-0.215278 -0.21531,-0.21531 z m -5.672302,0.0594 c -0.118899,3.2e-5 -0.215278,0.09641 -0.21531,0.21531 v 0.401385 c -7.5e-5,0.143306 0.01266,0.286333 0.03805,0.427372 l 0.100694,0.555908 c -0.105112,0.02392 -0.212881,-0.02756 -0.260321,-0.12436 l -0.194428,-0.284451 c -0.08083,-0.118196 -0.172985,-0.228227 -0.27517,-0.328533 l -0.290019,-0.284914 c -0.08507,-0.08346 -0.221491,-0.08284 -0.305795,0.0014 l -0.250113,0.250112 c -0.08424,0.08431 -0.08486,0.220724 -0.0014,0.305796 l 0.284915,0.290019 c 0.100306,0.102185 0.210337,0.194344 0.328533,0.275169 l 0.462174,0.316005 c -0.05289,0.09258 -0.164034,0.134628 -0.264961,0.10023 l -0.344311,-0.06218 c -0.141039,-0.02539 -0.284065,-0.03813 -0.427371,-0.03805 h -0.401386 c -0.118899,3.2e-5 -0.215278,0.09641 -0.21531,0.21531 v 0.358695 c 3.3e-5,0.118899 0.09641,0.215277 0.21531,0.21531 h 0.401386 c 0.14332,-7.9e-5 0.286346,-0.01297 0.427371,-0.03852 l 0.555908,-0.10023 c 0.02392,0.105112 -0.02756,0.21288 -0.12436,0.26032 l -0.28445,0.193965 c -0.118196,0.08083 -0.228227,0.172985 -0.328533,0.27517 l -0.284915,0.290018 c -0.08377,0.08513 -0.08314,0.221902 0.0014,0.30626 l 0.250113,0.250112 c 0.0843,0.08424 0.220723,0.08486 0.305795,0.0014 l 0.290019,-0.284914 c 0.102209,-0.100452 0.194369,-0.21064 0.27517,-0.328997 l 0.316004,-0.462174 c 0.09281,0.05293 0.134884,0.16436 0.100231,0.265425 l -0.06218,0.34431 c -0.02536,0.140887 -0.0381,0.283756 -0.03805,0.426908 v 0.401386 c 3.2e-5,0.118899 0.09641,0.215278 0.21531,0.21531 h 0.358695 c 0.118899,-3.2e-5 0.215278,-0.09641 0.21531,-0.21531 v -0.401386 c -1.04e-4,-0.143165 -0.01299,-0.286035 -0.03851,-0.426908 L 62.21786,48.309114 c 0.105112,-0.02392 0.212881,0.02756 0.260321,0.12436 l 0.194428,0.284451 c 0.0808,0.118357 0.172961,0.228545 0.27517,0.328997 l 0.290019,0.284914 c 0.08507,0.08346 0.221492,0.08284 0.305796,-0.0014 l 0.250112,-0.250112 c 0.08454,-0.08436 0.08517,-0.221132 0.0014,-0.30626 L 63.51018,48.484039 c -0.100306,-0.102185 -0.210338,-0.194344 -0.328534,-0.27517 l -0.462174,-0.31554 c 0.05274,-0.09276 0.163922,-0.135013 0.264962,-0.100695 l 0.34431,0.06218 c 0.141025,0.02555 0.284051,0.03844 0.427371,0.03852 h 0.400922 c 0.118899,-3.2e-5 0.215278,-0.09641 0.21531,-0.21531 v -0.358695 c -3.2e-5,-0.118899 -0.09641,-0.215278 -0.21531,-0.21531 h -0.400922 c -0.143306,-7.5e-5 -0.286332,0.01266 -0.427371,0.03805 L 62.772372,47.2423 c -0.02361,-0.105076 0.02804,-0.212613 0.124824,-0.259857 l 0.28445,-0.194429 c 0.118196,-0.08083 0.228228,-0.172988 0.328534,-0.275174 l 0.284914,-0.290019 c 0.08346,-0.08507 0.08284,-0.221491 -0.0014,-0.305796 L 63.54359,45.666913 c -0.0843,-0.08424 -0.220724,-0.08486 -0.305796,-0.0014 l -0.290019,0.284914 c -0.102185,0.100306 -0.194344,0.210337 -0.27517,0.328533 l -0.316004,0.462174 c -0.0928,-0.05293 -0.134883,-0.164361 -0.10023,-0.265425 l 0.06172,-0.343846 c 0.02555,-0.141025 0.03843,-0.284052 0.03851,-0.427372 v -0.401385 c -3.2e-5,-0.118899 -0.09641,-0.215278 -0.21531,-0.21531 z m 0.859812,5.981461 v 0.593958 l 4.493961,0.0095 V 51.07875 Z"
             transform="matrix(4.2090496,0,0,4.2090496,-226.04617,843.71115)" /></g><g
           id="g104"
           transform="matrix(0.40869732,0,0,0.38974309,17.412252,247.77983)"
           style="display:inline;fill:#bd0f3b;fill-opacity:1"><path
             style="fill:#4a0517;fill-opacity:1;stroke-width:3.06169;stroke-linecap:round;stroke-linejoin:round;stroke-miterlimit:4.6"
             id="path104"
             width="45.989639"
             height="20.382629"
             x="70.919258"
             y="1159.5826"
             d="M 80.317926,1159.5826 H 116.9089 v 9.8547 a 10.52801,10.52801 135 0 1 -10.52801,10.528 H 70.919258 v -10.984 a 9.3986676,9.3986676 135 0 1 9.398668,-9.3987 z" /><text
             xml:space="preserve"
             style="font-weight:bold;font-size:7.67943px;line-height:9.0702px;font-family:'Space Grotesk';-inkscape-font-specification:'Space Grotesk Bold';text-align:center;writing-mode:lr-tb;direction:ltr;text-anchor:middle;fill:#ffffff;fill-opacity:1;stroke-width:1.71873;stroke-linecap:round;stroke-linejoin:round;stroke-miterlimit:4.6"
             x="95.943825"
             y="1145.3979"
             id="text104"
             transform="scale(0.97653609,1.0240277)"><tspan
               style="font-size:7.67943px;line-height:9.0702px;fill:#ffffff;fill-opacity:1;stroke-width:1.71873"
               x="95.943825"
               y="1145.3979"
               id="tspan104">LIGHT MODE</tspan></text></g></g><g
         id="g67"
         style="display:inline"
         transform="matrix(0.55096818,0,0,0.55096818,-5.6926715,-298.39039)"><g
           id="g63"
           transform="matrix(-0.40673574,0.32706307,-0.32706307,-0.40673574,267.47299,934.61321)"><path
             style="display:inline;fill:#ffffff;fill-opacity:1;stroke-width:2;stroke-linecap:round;stroke-linejoin:round;stroke-miterlimit:4.6"
             d="m 40.835414,92.100653 c -1.692148,1.043377 -1.944543,2.209708 -1.944543,2.209708 l 1.59099,0.265165 -1.237437,1.944544 2.916815,0.53033 c 0,0 5.922019,-3.712311 12.727922,-5.303301 6.805902,-1.59099 -12.361599,-0.689823 -14.053747,0.353554 z"
             id="path60"
             transform="translate(14.120934,566.94304)" /><path
             style="display:inline;fill:#ff002c;fill-opacity:1;stroke-width:2;stroke-linecap:round;stroke-linejoin:round;stroke-miterlimit:4.6"
             d="m 71.672373,659.53749 c 0,0 4.40364,4.70606 9.15906,0.41726 4.75542,-4.2888 17.876355,2.18087 6.348562,-3.27282 -11.52779,-5.4537 -14.858389,-2.26076 -15.643024,-1.09991 -1.537595,2.27483 0.135402,3.95547 0.135402,3.95547 z"
             id="path61" /><path
             id="path62"
             style="fill:#ffffff;fill-opacity:1;stroke-width:1.58855;stroke-linecap:round;stroke-linejoin:round;stroke-miterlimit:4.6"
             d="m 48.24893,658.56063 0.186546,-3.35296 1.872669,2.26318 z m 1.645334,-2.80495 3.229872,-0.91927 -1.52707,2.50937 z m 8.629994,11.89623 -2.961255,-1.58369 0.959821,2.77626 z m -3.251481,-0.0526 -2.464345,2.28125 h 2.937499 z" /><path
             style="display:inline;fill:#ffffff;fill-opacity:1;stroke-width:2;stroke-linecap:round;stroke-linejoin:round;stroke-miterlimit:4.6"
             d="m 38.999998,92.249994 c 0,0 -11.25,-0.125 -26.124999,13.499996 -14.8749989,13.625 -6.3749994,12.125 10.625,2.125 16.999999,-9.999996 16.999999,-9.999996 16.999999,-9.999996 l -3.125,-0.5 1.25,-1.875 -2.75,0.125 z"
             id="path63"
             transform="translate(14.120934,566.94304)" /></g><g
           id="g66"
           transform="translate(4.9959345,567.94304)"
           style="display:inline"><rect
             style="display:inline;fill:#ffffff;fill-opacity:1;stroke-width:2;stroke-linecap:round;stroke-linejoin:round;stroke-miterlimit:4.6"
             id="rect63"
             width="25"
             height="15"
             x="37.999996"
             y="112.24999" /><path
             style="display:inline;fill:#b8b8b8;fill-opacity:1;stroke-width:2;stroke-linecap:round;stroke-linejoin:round;stroke-miterlimit:4.6"
             d="m 38.249998,112.37499 24.515163,0.16161 -12.265164,9.08839 z"
             id="path64" /><rect
             style="display:inline;fill:#ff002c;fill-opacity:1;stroke-width:2;stroke-linecap:round;stroke-linejoin:round;stroke-miterlimit:4.6"
             id="rect64"
             width="15"
             height="20"
             x="42.899582"
             y="103.42677" /><path
             style="display:inline;fill:#ffffff;fill-opacity:1;stroke-width:2;stroke-linecap:round;stroke-linejoin:round;stroke-miterlimit:4.6"
             d="m 38.124998,112.37499 c 12.624999,9.75 12.624999,9.75 12.624999,9.75 l 11.937499,-9.6875 0.125,15 -24.812498,-0.0625 z"
             id="path65" /><path
             id="path66"
             style="fill:#ffffff;fill-opacity:1;stroke-width:2;stroke-linecap:round;stroke-linejoin:round;stroke-miterlimit:4.6"
             d="m 44.837891,105.58398 v 0.8125 h 11.125 v -0.8125 z m 0.03125,2.84375 v 0.8125 h 11.125 v -0.8125 z m 0.03125,2.78125 v 0.8125 h 11.125 v -0.8125 z m 0.03125,2.78125 v 0.8125 h 11.125 v -0.8125 z" /></g><g
           id="g33"
           style="display:inline"
           transform="matrix(0.50262783,0,0,0.50262783,61.121208,157.33037)"><path
             style="display:inline;fill:#ffffff;fill-opacity:1;stroke-width:2.76395;stroke-linecap:round;stroke-linejoin:round;stroke-miterlimit:4.6"
             id="path32"
             d="m 94.009808,1132.2906 a 34.549358,34.549358 0 0 1 -34.369596,34.5489 34.549358,34.549358 0 0 1 -34.727251,-34.1893 34.549358,34.549358 0 0 1 34.008219,-34.9047 34.549358,34.549358 0 0 1 35.081145,33.8261"
             transform="matrix(0.72360245,0,0,0.72360245,3.7846216,228.34458)" /><path
             id="path33"
             style="font-weight:bold;font-size:10.6667px;line-height:17.0079px;font-family:'Space Grotesk';-inkscape-font-specification:'Space Grotesk Bold';text-align:center;text-anchor:middle;white-space:pre;display:inline;fill:#bd0f3b;fill-opacity:1;stroke-width:2;stroke-linecap:round;stroke-linejoin:round;stroke-miterlimit:4.6"
             d="m 67.454898,45.028408 c -0.118899,3.2e-5 -0.215278,0.09641 -0.21531,0.21531 v 0.401386 c -7.5e-5,0.143306 0.01266,0.286332 0.03805,0.427371 l 0.100694,0.555908 c -0.105112,0.02392 -0.212881,-0.02756 -0.260321,-0.12436 l -0.194428,-0.28445 c -0.08082,-0.118196 -0.172985,-0.228228 -0.27517,-0.328534 l -0.290019,-0.284914 c -0.08507,-0.08346 -0.221492,-0.08284 -0.305796,0.0014 l -0.250112,0.250112 c -0.08424,0.08431 -0.08486,0.220724 -0.0014,0.305796 l 0.284915,0.290019 c 0.100306,0.102185 0.210337,0.194344 0.328533,0.275169 l 0.462174,0.316005 c -0.05289,0.09258 -0.164034,0.134628 -0.264961,0.10023 l -0.344311,-0.06218 c -0.141039,-0.02539 -0.284065,-0.03813 -0.427371,-0.03805 h -0.401386 c -0.118899,3.2e-5 -0.215278,0.09641 -0.21531,0.21531 v 0.358695 c 3.3e-5,0.118899 0.09641,0.215277 0.21531,0.21531 h 0.401386 c 0.14332,-7.9e-5 0.286346,-0.01297 0.427371,-0.03852 l 0.555908,-0.10023 c 0.02392,0.105112 -0.02756,0.212881 -0.12436,0.260321 l -0.28445,0.193964 c -0.118196,0.08083 -0.228227,0.172985 -0.328533,0.27517 l -0.284915,0.290019 c -0.08377,0.08513 -0.08314,0.221901 0.0014,0.306259 l 0.250112,0.250112 c 0.0843,0.08424 0.220724,0.08486 0.305796,0.0014 l 0.290019,-0.284915 c 0.102209,-0.100452 0.194369,-0.21064 0.27517,-0.328997 l 0.316004,-0.462174 c 0.09281,0.05293 0.134884,0.16436 0.100231,0.265425 l -0.06218,0.34431 c -0.02536,0.140887 -0.0381,0.283756 -0.03805,0.426908 v 0.401386 c 3.2e-5,0.118899 0.09641,0.215278 0.21531,0.21531 h 0.358695 c 0.118899,-3.2e-5 0.215278,-0.09641 0.21531,-0.21531 v -0.401386 c -1.07e-4,-0.143166 -0.013,-0.286036 -0.03852,-0.426908 l -0.10023,-0.556371 c 0.105112,-0.02392 0.212881,0.02756 0.260321,0.12436 l 0.194428,0.28445 c 0.0808,0.118357 0.172961,0.228545 0.27517,0.328997 l 0.290019,0.284915 c 0.08507,0.08346 0.221492,0.08284 0.305796,-0.0014 l 0.250112,-0.250112 c 0.08454,-0.08436 0.08517,-0.221131 0.0014,-0.306259 l -0.284915,-0.290019 c -0.100306,-0.102185 -0.210337,-0.194344 -0.328533,-0.27517 l -0.462174,-0.31554 c 0.05275,-0.09276 0.163921,-0.135012 0.264961,-0.100695 l 0.344311,0.06218 c 0.141025,0.02555 0.284051,0.03844 0.427371,0.03852 h 0.400922 c 0.118899,-3.2e-5 0.215278,-0.09641 0.21531,-0.21531 v -0.358695 c -3.2e-5,-0.118899 -0.09641,-0.215278 -0.21531,-0.21531 H 69.42842 c -0.143306,-7.5e-5 -0.286332,0.01266 -0.427371,0.03805 l -0.556372,0.100231 c -0.02361,-0.105076 0.02804,-0.212613 0.124824,-0.259857 l 0.28445,-0.194429 c 0.118196,-0.08082 0.228227,-0.172984 0.328533,-0.275169 l 0.284915,-0.290019 c 0.08346,-0.08507 0.08284,-0.221491 -0.0014,-0.305796 l -0.250112,-0.250112 c -0.0843,-0.08424 -0.220724,-0.08486 -0.305796,-0.0014 l -0.290019,0.284914 c -0.102185,0.100306 -0.194344,0.210338 -0.27517,0.328534 l -0.316004,0.462173 c -0.0928,-0.05293 -0.134883,-0.164361 -0.10023,-0.265425 l 0.06171,-0.343846 c 0.02555,-0.141025 0.03844,-0.284051 0.03852,-0.427371 v -0.401386 c -3.2e-5,-0.118899 -0.09641,-0.215278 -0.21531,-0.21531 z m -5.672302,0.0594 c -0.118899,3.2e-5 -0.215278,0.09641 -0.21531,0.21531 v 0.401385 c -7.5e-5,0.143306 0.01266,0.286333 0.03805,0.427372 l 0.100694,0.555908 c -0.105112,0.02392 -0.212881,-0.02756 -0.260321,-0.12436 l -0.194428,-0.284451 c -0.08083,-0.118196 -0.172985,-0.228227 -0.27517,-0.328533 l -0.290019,-0.284914 c -0.08507,-0.08346 -0.221491,-0.08284 -0.305795,0.0014 l -0.250113,0.250112 c -0.08424,0.08431 -0.08486,0.220724 -0.0014,0.305796 l 0.284915,0.290019 c 0.100306,0.102185 0.210337,0.194344 0.328533,0.275169 l 0.462174,0.316005 c -0.05289,0.09258 -0.164034,0.134628 -0.264961,0.10023 l -0.344311,-0.06218 c -0.141039,-0.02539 -0.284065,-0.03813 -0.427371,-0.03805 h -0.401386 c -0.118899,3.2e-5 -0.215278,0.09641 -0.21531,0.21531 v 0.358695 c 3.3e-5,0.118899 0.09641,0.215277 0.21531,0.21531 h 0.401386 c 0.14332,-7.9e-5 0.286346,-0.01297 0.427371,-0.03852 l 0.555908,-0.10023 c 0.02392,0.105112 -0.02756,0.21288 -0.12436,0.26032 l -0.28445,0.193965 c -0.118196,0.08083 -0.228227,0.172985 -0.328533,0.27517 l -0.284915,0.290018 c -0.08377,0.08513 -0.08314,0.221902 0.0014,0.30626 l 0.250113,0.250112 c 0.0843,0.08424 0.220723,0.08486 0.305795,0.0014 l 0.290019,-0.284914 c 0.102209,-0.100452 0.194369,-0.21064 0.27517,-0.328997 l 0.316004,-0.462174 c 0.09281,0.05293 0.134884,0.16436 0.100231,0.265425 l -0.06218,0.34431 c -0.02536,0.140887 -0.0381,0.283756 -0.03805,0.426908 v 0.401386 c 3.2e-5,0.118899 0.09641,0.215278 0.21531,0.21531 h 0.358695 c 0.118899,-3.2e-5 0.215278,-0.09641 0.21531,-0.21531 v -0.401386 c -1.04e-4,-0.143165 -0.01299,-0.286035 -0.03851,-0.426908 L 62.21786,48.309114 c 0.105112,-0.02392 0.212881,0.02756 0.260321,0.12436 l 0.194428,0.284451 c 0.0808,0.118357 0.172961,0.228545 0.27517,0.328997 l 0.290019,0.284914 c 0.08507,0.08346 0.221492,0.08284 0.305796,-0.0014 l 0.250112,-0.250112 c 0.08454,-0.08436 0.08517,-0.221132 0.0014,-0.30626 L 63.51018,48.484039 c -0.100306,-0.102185 -0.210338,-0.194344 -0.328534,-0.27517 l -0.462174,-0.31554 c 0.05274,-0.09276 0.163922,-0.135013 0.264962,-0.100695 l 0.34431,0.06218 c 0.141025,0.02555 0.284051,0.03844 0.427371,0.03852 h 0.400922 c 0.118899,-3.2e-5 0.215278,-0.09641 0.21531,-0.21531 v -0.358695 c -3.2e-5,-0.118899 -0.09641,-0.215278 -0.21531,-0.21531 h -0.400922 c -0.143306,-7.5e-5 -0.286332,0.01266 -0.427371,0.03805 L 62.772372,47.2423 c -0.02361,-0.105076 0.02804,-0.212613 0.124824,-0.259857 l 0.28445,-0.194429 c 0.118196,-0.08083 0.228228,-0.172988 0.328534,-0.275174 l 0.284914,-0.290019 c 0.08346,-0.08507 0.08284,-0.221491 -0.0014,-0.305796 L 63.54359,45.666913 c -0.0843,-0.08424 -0.220724,-0.08486 -0.305796,-0.0014 l -0.290019,0.284914 c -0.102185,0.100306 -0.194344,0.210337 -0.27517,0.328533 l -0.316004,0.462174 c -0.0928,-0.05293 -0.134883,-0.164361 -0.10023,-0.265425 l 0.06172,-0.343846 c 0.02555,-0.141025 0.03843,-0.284052 0.03851,-0.427372 v -0.401385 c -3.2e-5,-0.118899 -0.09641,-0.215278 -0.21531,-0.21531 z m 1.001459,6.038349 v 0.593958 l 4.210636,0.01896 v -0.593958 z"
             transform="matrix(4.2090496,0,0,4.2090496,-226.04617,843.71115)" /></g><g
           id="g105"
           transform="matrix(0.40177968,0,0,0.38314626,18.614509,256.3589)"
           style="display:inline;fill:#bd0f3b;fill-opacity:1"><path
             style="fill:#ff002d;fill-opacity:1;stroke-width:3.06169;stroke-linecap:round;stroke-linejoin:round;stroke-miterlimit:4.6"
             id="path105"
             width="45.989639"
             height="20.382629"
             x="70.919258"
             y="1159.5826"
             d="M 81.164932,1159.5826 H 116.9089 v 12.3957 a 7.9869901,7.9869901 135 0 1 -7.98699,7.987 H 70.919258 v -10.137 a 10.245674,10.245674 135 0 1 10.245674,-10.2457 z" /><text
             xml:space="preserve"
             style="font-weight:bold;font-size:7.67943px;line-height:9.0702px;font-family:'Space Grotesk';-inkscape-font-specification:'Space Grotesk Bold';text-align:center;writing-mode:lr-tb;direction:ltr;text-anchor:middle;fill:#ffffff;fill-opacity:1;stroke-width:1.71873;stroke-linecap:round;stroke-linejoin:round;stroke-miterlimit:4.6"
             x="95.943825"
             y="1145.3979"
             id="text105"
             transform="scale(0.97653609,1.0240277)"><tspan
               style="font-size:7.67943px;line-height:9.0702px;fill:#ffffff;fill-opacity:1;stroke-width:1.71873"
               x="95.943825"
               y="1145.3979"
               id="tspan105">DARK MODE</tspan></text></g></g></g></g></svg>
